<svg width="1024" height="500" viewBox="0 0 1024 500" fill="none" xmlns="http://www.w3.org/2000/svg">
<rect width="1024" height="500" fill="url(#paint0_linear_104_16)"/>
<g filter="url(#filter0_d_104_16)">
<circle cx="904" cy="375" r="32" fill="#EDF136"/>
</g>
<path d="M871.311 416.434H875.973L878.652 425.703L879.65 429.695L880.648 425.703L883.26 416.434H887.922L888.934 435H885.967L885.406 421.574L885.475 417.979C885.265 418.607 885.046 419.3 884.818 420.057C884.6 420.813 884.372 421.602 884.135 422.422C883.907 423.233 883.674 424.062 883.438 424.91C883.21 425.749 882.977 426.578 882.74 427.398C882.512 428.21 882.285 428.993 882.057 429.75C881.838 430.497 881.624 431.181 881.414 431.801H877.9L873.717 417.938L873.771 421.629L873.307 435H870.34L871.311 416.434ZM899.256 435.355C897.889 435.355 896.713 435.137 895.729 434.699C894.753 434.253 893.951 433.615 893.322 432.785C892.702 431.947 892.247 430.935 891.955 429.75C891.663 428.556 891.518 427.212 891.518 425.717C891.518 424.222 891.668 422.878 891.969 421.684C892.279 420.49 892.748 419.478 893.377 418.648C894.015 417.819 894.822 417.186 895.797 416.748C896.772 416.301 897.925 416.078 899.256 416.078C900.65 416.078 901.831 416.288 902.797 416.707C903.763 417.117 904.547 417.723 905.148 418.525C905.759 419.327 906.201 420.312 906.475 421.479C906.748 422.636 906.885 423.962 906.885 425.457C906.885 426.961 906.739 428.324 906.447 429.545C906.156 430.757 905.7 431.796 905.08 432.662C904.46 433.519 903.667 434.184 902.701 434.658C901.744 435.123 900.596 435.355 899.256 435.355ZM899.256 432.963C900.122 432.963 900.842 432.781 901.416 432.416C901.999 432.051 902.464 431.541 902.811 430.885C903.166 430.219 903.417 429.426 903.562 428.506C903.717 427.585 903.795 426.569 903.795 425.457C903.795 424.263 903.717 423.229 903.562 422.354C903.417 421.469 903.166 420.74 902.811 420.166C902.464 419.583 901.999 419.15 901.416 418.867C900.842 418.585 900.122 418.443 899.256 418.443C898.39 418.443 897.656 418.607 897.055 418.936C896.462 419.255 895.984 419.729 895.619 420.357C895.255 420.977 894.99 421.738 894.826 422.641C894.671 423.543 894.594 424.568 894.594 425.717C894.594 426.865 894.671 427.891 894.826 428.793C894.99 429.695 895.255 430.456 895.619 431.076C895.984 431.687 896.462 432.156 897.055 432.484C897.656 432.803 898.39 432.963 899.256 432.963ZM910.18 416.447C910.645 416.429 911.16 416.406 911.725 416.379C912.217 416.361 912.791 416.342 913.447 416.324C914.113 416.306 914.842 416.297 915.635 416.297C917.057 416.297 918.314 416.488 919.408 416.871C920.502 417.245 921.423 417.814 922.17 418.58C922.926 419.346 923.496 420.307 923.879 421.465C924.271 422.622 924.467 423.98 924.467 425.539C924.467 427.098 924.257 428.469 923.838 429.654C923.419 430.83 922.817 431.814 922.033 432.607C921.258 433.4 920.315 433.997 919.203 434.398C918.091 434.799 916.838 435 915.443 435H910.18V416.447ZM915.908 432.607C916.756 432.607 917.512 432.43 918.178 432.074C918.843 431.71 919.408 431.213 919.873 430.584C920.338 429.946 920.693 429.203 920.939 428.355C921.186 427.499 921.309 426.578 921.309 425.594C921.309 424.454 921.186 423.456 920.939 422.6C920.693 421.734 920.338 421.009 919.873 420.426C919.408 419.842 918.843 419.405 918.178 419.113C917.512 418.822 916.756 418.676 915.908 418.676C915.443 418.676 915.042 418.68 914.705 418.689C914.368 418.699 914.094 418.708 913.885 418.717C913.639 418.735 913.434 418.749 913.27 418.758V432.607H915.908ZM927.352 416.434H938.002C938.002 416.497 938.007 416.566 938.016 416.639C938.025 416.702 938.029 416.775 938.029 416.857C938.038 416.93 938.043 417.012 938.043 417.104C938.043 417.258 938.011 417.495 937.947 417.814C937.893 418.124 937.765 418.484 937.564 418.895C936.808 418.867 936.024 418.84 935.213 418.812C934.52 418.794 933.755 418.776 932.916 418.758C932.077 418.73 931.257 418.717 930.455 418.717V424.322C930.719 424.322 931.016 424.322 931.344 424.322C931.681 424.313 932.027 424.304 932.383 424.295C932.747 424.286 933.112 424.277 933.477 424.268C933.841 424.258 934.197 424.249 934.543 424.24C935.345 424.213 936.17 424.19 937.018 424.172C937.018 424.245 937.022 424.322 937.031 424.404C937.04 424.477 937.045 424.564 937.045 424.664C937.054 424.755 937.059 424.851 937.059 424.951C937.059 424.997 937.049 425.088 937.031 425.225C937.022 425.352 936.999 425.498 936.963 425.662C936.936 425.826 936.899 425.99 936.854 426.154C936.817 426.318 936.771 426.455 936.717 426.564C935.869 426.564 935.053 426.56 934.27 426.551C933.932 426.551 933.586 426.551 933.23 426.551C932.875 426.551 932.529 426.551 932.191 426.551C931.863 426.542 931.549 426.537 931.248 426.537C930.947 426.537 930.683 426.537 930.455 426.537V432.662C931.257 432.662 932.1 432.648 932.984 432.621C933.878 432.594 934.707 432.566 935.473 432.539C936.366 432.503 937.245 432.462 938.111 432.416C938.111 432.498 938.116 432.585 938.125 432.676C938.134 432.749 938.139 432.84 938.139 432.949C938.148 433.049 938.152 433.15 938.152 433.25C938.152 433.441 938.139 433.692 938.111 434.002C938.084 434.312 938.025 434.645 937.934 435H927.352V416.434Z" fill="black"/>
<circle cx="804" cy="375" r="32" fill="#008505"/>
<circle cx="804" cy="375" r="32" fill="black" fill-opacity="0.2"/>
<path d="M777.854 416.434H784.211C785.122 416.434 785.938 416.561 786.658 416.816C787.378 417.062 787.989 417.427 788.49 417.91C788.992 418.384 789.37 418.967 789.625 419.66C789.889 420.344 790.021 421.123 790.021 421.998C790.021 422.791 789.88 423.552 789.598 424.281C789.324 425.001 788.91 425.644 788.354 426.209C787.807 426.765 787.123 427.212 786.303 427.549C785.482 427.877 784.53 428.041 783.445 428.041C783.099 428.041 782.775 428.036 782.475 428.027C782.174 428.018 781.91 428.005 781.682 427.986C781.417 427.968 781.176 427.945 780.957 427.918V435H777.854V416.434ZM780.957 425.607C781.094 425.626 781.299 425.648 781.572 425.676C781.846 425.694 782.174 425.703 782.557 425.703C783.176 425.703 783.746 425.639 784.266 425.512C784.794 425.384 785.25 425.184 785.633 424.91C786.016 424.628 786.312 424.263 786.521 423.816C786.74 423.37 786.85 422.827 786.85 422.189C786.85 421.679 786.795 421.219 786.686 420.809C786.585 420.389 786.421 420.034 786.193 419.742C785.975 419.441 785.688 419.214 785.332 419.059C784.977 418.895 784.548 418.812 784.047 418.812H780.957V425.607ZM792.838 416.434H795.941V432.43C796.324 432.43 796.721 432.425 797.131 432.416C797.55 432.407 797.965 432.398 798.375 432.389C798.794 432.38 799.2 432.37 799.592 432.361C799.993 432.343 800.371 432.325 800.727 432.307C801.565 432.27 802.385 432.234 803.188 432.197C803.188 432.352 803.165 432.585 803.119 432.895C803.083 433.204 803.037 433.519 802.982 433.838C802.928 434.148 802.873 434.421 802.818 434.658C802.773 434.886 802.736 435 802.709 435H792.838V416.434ZM809.518 416.434H814.18L819.73 435H816.627L814.932 429.326H808.93L807.316 435H804.131L809.518 416.434ZM814.289 426.947L811.787 417.842L809.531 426.947H814.289ZM824.912 428.027L819.334 416.434H822.67L825.637 423.379L826.43 425.785L827.223 423.393L830.23 416.434H833.566L828.016 428.027V435H824.912V428.027Z" fill="black"/>
<g filter="url(#filter1_d_104_16)">
<rect x="84" y="325" width="505" height="115" fill="black"/>
</g>
<g filter="url(#filter2_i_104_16)">
<rect x="104" y="345" width="465" height="75" fill="#00650A"/>
</g>
<path d="M131.676 363.091L129.255 365.545H120.844L119.633 364.302L120.844 363.091H131.676ZM120.418 372.549L118.88 374.087L117.964 373.171V366.004L119.175 364.76L120.418 366.004V372.549ZM131.676 386H120.844L119.633 384.789L120.844 383.545H129.255L131.676 386ZM120.418 383.087L119.175 384.331L117.964 383.087V375.953L118.88 375.004L120.418 376.542V383.087ZM149.325 373.171L148.441 374.087L146.903 372.549V365.545L149.325 363.091V373.171ZM135.612 373.171L136.528 374.087L138.067 372.549V365.545L135.612 363.091V373.171ZM138.492 386L137.281 384.789L138.492 383.545H146.445L147.656 384.789L146.445 386H138.492ZM149.325 383.087L148.114 384.331L146.903 383.087V376.542L148.441 375.004L149.325 375.953V383.087ZM146.739 373.335L147.983 374.545L146.739 375.756H138.198L136.987 374.545L138.198 373.335H146.739ZM166.973 363.091L164.551 365.545H156.141L154.93 364.302L156.141 363.091H166.973ZM155.715 372.549L154.177 374.087L153.261 373.171V366.004L154.471 364.76L155.715 366.004V372.549ZM166.973 386H156.141L154.93 384.789L156.141 383.545H164.551L166.973 386ZM155.715 383.087L154.471 384.331L153.261 383.087V375.953L154.177 375.004L155.715 376.542V383.087ZM184.622 386H171.367L173.789 383.545H182.2L184.622 386ZM173.363 376.542V383.087L170.909 385.542V375.953L171.825 375.004L173.363 376.542ZM170.909 373.171V363.091L173.363 365.545V372.549L171.825 374.087L170.909 373.171ZM202.27 373.171L201.386 374.087L199.848 372.549V366.004L201.059 364.76L202.27 366.004V373.171ZM200.601 364.302L199.39 365.545H191.437L190.226 364.302L191.437 363.091H199.39L200.601 364.302ZM202.27 383.087L201.059 384.331L199.848 383.087V376.542L201.386 375.004L202.27 375.953V383.087ZM191.012 372.549L189.474 374.087L188.557 373.171V366.004L189.768 364.76L191.012 366.004V372.549ZM188.557 383.087L189.768 384.331L191.012 383.087V376.542L189.474 375.004L188.557 375.953V383.087ZM191.437 386L190.226 384.789L191.437 383.545H199.39L200.601 384.789L199.39 386H191.437ZM208.66 376.542V383.545L206.206 386V375.953L207.122 375.004L208.66 376.542ZM206.206 373.171V363.091L208.66 365.545V372.549L207.122 374.087L206.206 373.171ZM219.919 375.953V386L217.497 383.545V376.542L219.035 375.004L219.919 375.953ZM217.497 372.549V365.545L219.919 363.091V373.171L219.035 374.087L217.497 372.549ZM209.217 367.313V365.545H210.951L216.908 371.502V373.236H215.173L209.217 367.313ZM237.567 363.091L235.145 365.545H226.734L224.312 363.091H237.567ZM237.567 386H224.312L226.734 383.545H235.145L237.567 386ZM226.309 376.542V383.087L223.854 385.542V375.953L224.771 375.004L226.309 376.542ZM223.854 373.171V363.549L226.309 366.004V372.549L224.771 374.087L223.854 373.171ZM234.982 373.335L236.225 374.545L234.982 375.756H226.44L225.229 374.545L226.44 373.335H234.982ZM263.265 363.091L260.843 365.545H252.891L250.469 363.091H263.265ZM252.465 376.542V383.545L250.011 386V375.953L250.927 375.004L252.465 376.542ZM250.011 373.171V363.549L252.465 366.004V372.549L250.927 374.087L250.011 373.171ZM263.723 375.953V386L261.301 383.545V376.542L262.84 375.004L263.723 375.953ZM261.301 372.549V366.004L263.723 363.549V373.171L262.84 374.087L261.301 372.549ZM261.138 373.335L262.381 374.545L261.138 375.756H252.596L251.385 374.545L252.596 373.335H261.138ZM281.372 373.171L280.488 374.087L278.95 372.549V366.004L280.161 364.76L281.372 366.004V373.171ZM279.703 364.302L278.492 365.545H270.539L268.117 363.091H278.492L279.703 364.302ZM270.113 372.549L268.575 374.087L267.659 373.171V363.549L270.113 366.004V372.549ZM270.113 383.545L267.659 386V375.953L268.575 375.004L270.113 376.542V383.545ZM271.783 378.113V376.378H273.517L281.372 384.265V386H279.637L271.783 378.113ZM278.786 373.335L280.03 374.545L278.786 375.756H270.244L269.033 374.545L270.244 373.335H278.786ZM299.02 363.091L296.598 365.545H288.187L286.976 364.302L288.187 363.091H299.02ZM287.762 372.549L286.224 374.087L285.307 373.171V366.004L286.518 364.76L287.762 366.004V372.549ZM299.02 386H288.187L286.976 384.789L288.187 383.545H296.598L299.02 386ZM287.762 383.087L286.518 384.331L285.307 383.087V375.953L286.224 375.004L287.762 376.542V383.087ZM316.21 363.091L313.789 365.545H305.836L303.414 363.091H316.21ZM305.41 376.542V383.545L302.956 386V375.953L303.872 375.004L305.41 376.542ZM302.956 373.171V363.549L305.41 366.004V372.549L303.872 374.087L302.956 373.171ZM316.669 375.953V386L314.247 383.545V376.542L315.785 375.004L316.669 375.953ZM314.247 372.549V366.004L316.669 363.549V373.171L315.785 374.087L314.247 372.549ZM314.083 373.335L315.327 374.545L314.083 375.756H305.541L304.33 374.545L305.541 373.335H314.083ZM334.317 383.087L333.106 384.331L331.895 383.087V376.542L333.433 375.004L334.317 375.953V383.087ZM334.317 373.171L333.433 374.087L331.895 372.549V366.004L333.106 364.76L334.317 366.004V373.171ZM332.648 364.302L331.437 365.545H323.484L321.062 363.091H331.437L332.648 364.302ZM332.648 384.789L331.437 386H321.062L323.484 383.545H331.437L332.648 384.789ZM323.059 372.549L321.521 374.087L320.604 373.171V363.549L323.059 366.004V372.549ZM323.059 383.087L320.604 385.542V375.953L321.521 375.004L323.059 376.542V383.087ZM351.965 363.091L349.544 365.545H341.133L338.711 363.091H351.965ZM351.965 386H338.711L341.133 383.545H349.544L351.965 386ZM340.707 376.542V383.087L338.253 385.542V375.953L339.169 375.004L340.707 376.542ZM338.253 373.171V363.549L340.707 366.004V372.549L339.169 374.087L338.253 373.171ZM349.38 373.335L350.624 374.545L349.38 375.756H340.838L339.627 374.545L340.838 373.335H349.38ZM377.663 363.091L375.242 365.545H367.289L366.078 364.302L367.289 363.091H377.663ZM376.78 374.545L375.536 375.756H372.787L371.576 374.545L372.787 373.335H375.536L376.78 374.545ZM366.863 372.549L365.325 374.087L364.409 373.171V366.004L365.62 364.76L366.863 366.004V372.549ZM366.863 383.087L365.62 384.331L364.409 383.087V375.953L365.325 375.004L366.863 376.542V383.087ZM375.242 386L376.453 384.789L375.242 383.545H367.289L366.078 384.789L367.289 386H375.242ZM378.122 383.087L376.911 384.331L375.7 383.087V376.542L377.238 375.004L378.122 375.953V383.087ZM395.312 363.091L392.89 365.545H384.937L382.516 363.091H395.312ZM384.512 376.542V383.545L382.057 386V375.953L382.974 375.004L384.512 376.542ZM382.057 373.171V363.549L384.512 366.004V372.549L382.974 374.087L382.057 373.171ZM395.77 375.953V386L393.348 383.545V376.542L394.886 375.004L395.77 375.953ZM393.348 372.549V366.004L395.77 363.549V373.171L394.886 374.087L393.348 372.549ZM393.185 373.335L394.428 374.545L393.185 375.756H384.643L383.432 374.545L384.643 373.335H393.185ZM412.96 363.091L410.539 365.545H402.586L400.164 363.091H412.96ZM402.16 376.542V383.545L399.706 386V375.953L400.622 375.004L402.16 376.542ZM399.706 373.171V363.549L402.16 366.004V372.549L400.622 374.087L399.706 373.171ZM413.419 375.953V386L410.997 383.545V376.542L412.535 375.004L413.419 375.953ZM410.997 372.549V366.004L413.419 363.549V373.171L412.535 374.087L410.997 372.549ZM405.335 367.378L406.546 366.167L407.789 367.378V372.844L406.546 374.087L405.335 372.844V367.378ZM431.067 363.091L428.645 365.545H420.234L417.812 363.091H431.067ZM431.067 386H417.812L420.234 383.545H428.645L431.067 386ZM419.809 376.542V383.087L417.354 385.542V375.953L418.271 375.004L419.809 376.542ZM417.354 373.171V363.549L419.809 366.004V372.549L418.271 374.087L417.354 373.171ZM428.482 373.335L429.725 374.545L428.482 375.756H419.94L418.729 374.545L419.94 373.335H428.482Z" fill="white"/>
<circle cx="92" cy="135" r="20" fill="#FF0000"/>
<circle cx="308" cy="135" r="20" fill="#FFFF00"/>
<circle cx="716" cy="135" r="20" fill="#FFFF00"/>
<circle cx="512" cy="135" r="20" fill="#00FF00"/>
<circle cx="908" cy="135" r="20" fill="#FF0000"/>
<defs>
<filter id="filter0_d_104_16" x="868" y="343" width="72" height="72" filterUnits="userSpaceOnUse" color-interpolation-filters="sRGB">
<feFlood flood-opacity="0" result="BackgroundImageFix"/>
<feColorMatrix in="SourceAlpha" type="matrix" values="0 0 0 0 0 0 0 0 0 0 0 0 0 0 0 0 0 0 127 0" result="hardAlpha"/>
<feOffset dy="4"/>
<feGaussianBlur stdDeviation="2"/>
<feComposite in2="hardAlpha" operator="out"/>
<feColorMatrix type="matrix" values="0 0 0 0 0 0 0 0 0 0 0 0 0 0 0 0 0 0 0.25 0"/>
<feBlend mode="normal" in2="BackgroundImageFix" result="effect1_dropShadow_104_16"/>
<feBlend mode="normal" in="SourceGraphic" in2="effect1_dropShadow_104_16" result="shape"/>
</filter>
<filter id="filter1_d_104_16" x="80" y="325" width="513" height="123" filterUnits="userSpaceOnUse" color-interpolation-filters="sRGB">
<feFlood flood-opacity="0" result="BackgroundImageFix"/>
<feColorMatrix in="SourceAlpha" type="matrix" values="0 0 0 0 0 0 0 0 0 0 0 0 0 0 0 0 0 0 127 0" result="hardAlpha"/>
<feOffset dy="4"/>
<feGaussianBlur stdDeviation="2"/>
<feComposite in2="hardAlpha" operator="out"/>
<feColorMatrix type="matrix" values="0 0 0 0 0 0 0 0 0 0 0 0 0 0 0 0 0 0 0.25 0"/>
<feBlend mode="normal" in2="BackgroundImageFix" result="effect1_dropShadow_104_16"/>
<feBlend mode="normal" in="SourceGraphic" in2="effect1_dropShadow_104_16" result="shape"/>
</filter>
<filter id="filter2_i_104_16" x="104" y="345" width="465" height="79" filterUnits="userSpaceOnUse" color-interpolation-filters="sRGB">
<feFlood flood-opacity="0" result="BackgroundImageFix"/>
<feBlend mode="normal" in="SourceGraphic" in2="BackgroundImageFix" result="shape"/>
<feColorMatrix in="SourceAlpha" type="matrix" values="0 0 0 0 0 0 0 0 0 0 0 0 0 0 0 0 0 0 127 0" result="hardAlpha"/>
<feOffset dy="4"/>
<feGaussianBlur stdDeviation="2"/>
<feComposite in2="hardAlpha" operator="arithmetic" k2="-1" k3="1"/>
<feColorMatrix type="matrix" values="0 0 0 0 0 0 0 0 0 0 0 0 0 0 0 0 0 0 0.25 0"/>
<feBlend mode="normal" in2="shape" result="effect1_innerShadow_104_16"/>
</filter>
<linearGradient id="paint0_linear_104_16" x1="512" y1="0" x2="512" y2="500" gradientUnits="userSpaceOnUse">
<stop stop-color="white"/>
<stop offset="1" stop-color="#AFAFAF"/>
</linearGradient>
</defs>
</svg>
